Handbrake Version: 20250906052339-dddf75f75-makepkg (2025100401)

(fr.handbrake.ghb:5): GLib-GIO-CRITICAL **: 17:30:54.140: g_bus_watch_name_on_connection: assertion 'G_IS_DBUS_CONNECTION (connection)' failed

(fr.handbrake.ghb:5): GLib-GIO-CRITICAL **: 17:30:54.140: g_dbus_connection_signal_subscribe: assertion 'G_IS_DBUS_CONNECTION (connection)' failed

(fr.handbrake.ghb:5): GLib-GIO-CRITICAL **: 17:30:54.140: g_dbus_connection_call_internal: assertion 'G_IS_DBUS_CONNECTION (connection)' failed
[17:30:54] gtkgui: Modified Custom Preset: /Custom/CPU (With FIlters) (VP9)
[17:30:54] Starting work at: Fri Oct 17 17:30:54 2025

[17:30:54] 1 job(s) to process
[17:30:54] json job:
{
    "Audio": {
        "AudioList": [],
        "CopyMask": [],
        "FallbackEncoder": 0
    },
    "Destination": {
        "AlignAVStart": false,
        "ChapterList": [
            {
                "Duration": {
                    "Hours": 0,
                    "Minutes": 0,
                    "Seconds": 4,
                    "Ticks": 432000
                },
                "Name": ""
            }
        ],
        "ChapterMarkers": false,
        "File": "/mnt/iMac/DaVinci Resolve/IICAQM/12642545_1920_1080_50fps.mkv",
        "InlineParameterSets": false,
        "Mux": "mkv",
        "Options": {
            "IpodAtom": false,
            "Optimize": false
        }
    },
    "Filters": {
        "FilterList": [
            {
                "ID": 4,
                "Settings": {
                    "block-height": "16",
                    "block-thresh": "40",
                    "block-width": "16",
                    "filter-mode": "2",
                    "mode": "3",
                    "motion-thresh": "3",
                    "spatial-metric": "2",
                    "spatial-thresh": "3"
                }
            },
            {
                "ID": 6,
                "Settings": {
                    "mode": "15"
                }
            },
            {
                "ID": 11,
                "Settings": {
                    "mode": 0
                }
            },
            {
                "ID": 14,
                "Settings": {
                    "cb-frame-count": 2,
                    "cb-origin-tune": 0.8,
                    "cb-patch-size": 7,
                    "cb-prefilter": 0,
                    "cb-range": 3,
                    "cb-strength": 6.0,
                    "y-frame-count": 2,
                    "y-origin-tune": 0.8,
                    "y-patch-size": 7,
                    "y-prefilter": 0,
                    "y-range": 3,
                    "y-strength": 0.0
                }
            },
            {
                "ID": 20,
                "Settings": {
                    "crop-bottom": 0,
                    "crop-left": 0,
                    "crop-right": 0,
                    "crop-top": 0,
                    "height": 1080,
                    "width": 1920
                }
            },
            {
                "ID": 28,
                "Settings": {
                    "bottom": "0",
                    "color": "black",
                    "left": "0",
                    "right": "0",
                    "top": "0"
                }
            }
        ]
    },
    "Metadata": {},
    "PAR": {
        "Den": 1,
        "Num": 1
    },
    "SequenceID": 0,
    "Source": {
        "Angle": 0,
        "HWDecode": 0,
        "KeepDuplicateTitles": false,
        "Path": "/home/sudar/Downloads/12642545_1920_1080_50fps.mp4",
        "Range": {
            "End": 1,
            "Start": 1,
            "Type": "chapter"
        },
        "Title": 3
    },
    "Subtitle": {
        "Search": {
            "Burn": true,
            "Default": false,
            "Enable": false,
            "Forced": false
        },
        "SubtitleList": []
    },
    "Video": {
        "AdapterIndex": -1,
        "AsyncDepth": 0,
        "ChromaLocation": 1,
        "ColorInputFormat": 0,
        "ColorMatrix": 1,
        "ColorOutputFormat": 0,
        "ColorPrimaries": 1,
        "ColorRange": 0,
        "ColorTransfer": 1,
        "Encoder": "VP9",
        "HardwareDecode": 0,
        "Level": "auto",
        "MultiPass": true,
        "Options": "",
        "PasshtruHDRDynamicMetadata": 6,
        "Preset": "medium",
        "Profile": "auto",
        "Quality": 22.0,
        "Tune": "",
        "Turbo": true
    }
}
[17:30:54] CPU: Intel(R) Xeon(R) W-2135 CPU @ 3.70GHz
[17:30:54]  - logical processor count: 12
[17:30:54] Intel Quick Sync Video support: no
[17:30:54] hb_scan: path=/home/sudar/Downloads/12642545_1920_1080_50fps.mp4, title_index=3
Input #0, mov,mp4,m4a,3gp,3g2,mj2, from '/home/sudar/Downloads/12642545_1920_1080_50fps.mp4':
  Metadata:
    major_brand     : iso5
    minor_version   : 512
    compatible_brands: iso5iso6mp41
    encoder         : Lavf60.16.100
  Duration: 00:00:04.80, start: 0.000000, bitrate: 8107 kb/s
  Stream #0:0[0x1](und): Video: h264 (High) (avc1 / 0x31637661), yuv420p(tv, bt709, progressive), 1920x1080 [SAR 1:1 DAR 16:9], 8103 kb/s, 50 fps, 50 tbr, 12800 tbn (default)
      Metadata:
        handler_name    : VideoHandler
        vendor_id       : [0][0][0][0]
        encoder         : Lavc60.31.102 libx264
[17:30:54] scan: decoding previews for title 3
[17:30:54] using container PAR 1:1
[17:30:54] scan: 10 previews, 1920x1080, 50.000 fps, autocrop = 0/0/0/0, aspect 16:9, PAR 1:1, color profile: 1-1-1, chroma location: left
[17:30:54] libhb: scan thread found 1 valid title(s)
[17:30:54] Starting Task: Analysis Pass
[17:30:54] work: skipping crop/scale filter
[17:30:54] NLMeans using SSE2 optimizations
[17:30:54] NLMeans using 12 threads
[17:30:54] job configuration:
[17:30:54]  * source
[17:30:54]    + /home/sudar/Downloads/12642545_1920_1080_50fps.mp4
[17:30:54]    + title 3, chapter(s) 1 to 1
[17:30:54]    + container: mov,mp4,m4a,3gp,3g2,mj2
[17:30:54]    + data rate: 8107 kbps
[17:30:54]  * destination
[17:30:54]    + /mnt/iMac/DaVinci Resolve/IICAQM/12642545_1920_1080_50fps.mkv
[17:30:54]    + container: Matroska (libavformat)
[17:30:54]  * video track
[17:30:54]    + decoder: h264 8-bit (yuv420p)
[17:30:54]      + bitrate 8103 kbps
[17:30:54]    + filters
[17:30:54]      + Comb Detect (mode=3:spatial-metric=2:motion-thresh=3:spatial-thresh=3:filter-mode=2:block-thresh=40:block-width=16:block-height=16)
[17:30:54]      + Decomb (mode=47)
[17:30:54]      + Framerate Shaper (mode=0)
[17:30:54]        + frame rate: same as source (around 50.000 fps)
[17:30:54]      + Denoise (nlmeans) (y-strength=0:y-origin-tune=0.8:y-patch-size=7:y-range=3:y-frame-count=2:y-prefilter=0:cb-strength=6:cb-origin-tune=0.8:cb-patch-size=7:cb-range=3:cb-frame-count=2:cb-prefilter=0)
[17:30:54]      + Pad (color=black:top=0:bottom=0:left=0:right=0)
[17:30:54]    + Output geometry
[17:30:54]      + storage dimensions: 1920 x 1080
[17:30:54]      + pixel aspect ratio: 1 : 1
[17:30:54]      + display dimensions: 1920 x 1080
[17:30:54]    + encoder: VP9 (libvpx)
[17:30:54]      + preset:  medium
[17:30:54]      + profile: auto
[17:30:54]      + level:   auto
[17:30:54]      + quality: 22.00 (CQ)
[17:30:54]      + color profile: 1-1-1
[17:30:54]      + color range: tv
[17:30:54]      + chroma location: left
[17:30:54] sync: expecting 240 video frames
[17:30:54] encavcodecInit: VP9 encoder
[17:30:54] encavcodec: encoding at CQ 22.00
[17:30:54] encavcodec: encoding with stored aspect 1/1
[17:30:54] sync: first pts video is 0
[17:30:54] sync: Chapter 1 at frame 1 time 0
[17:30:58] reader: done. 1 scr changes
[17:31:01] work: average encoding speed for job is 44.941120 fps
[17:31:01] comb detect: heavy 0 | light 0 | uncombed 240 | total 240
[17:31:01] decomb: deinterlaced 0 | blended 0 | unfiltered 240 | total 240
[17:31:01] vfr: 240 frames output, 0 dropped
[17:31:01] vfr: lost time: 0 (0 frames)
[17:31:01] vfr: gained time: 0 (0 frames) (0 not accounted for)
[17:31:02] h264-decoder done: 240 frames, 0 decoder errors
[17:31:02] sync: got 240 frames, 240 expected
[17:31:02] sync: framerate min 50.000 fps, max 50.000 fps, avg 50.000 fps
[17:31:02] Starting Task: Encoding Pass
[17:31:02] work: skipping crop/scale filter
[17:31:02] NLMeans using SSE2 optimizations
[17:31:02] NLMeans using 12 threads
[17:31:02] job configuration:
[17:31:02]  * source
[17:31:02]    + /home/sudar/Downloads/12642545_1920_1080_50fps.mp4
[17:31:02]    + title 3, chapter(s) 1 to 1
[17:31:02]    + container: mov,mp4,m4a,3gp,3g2,mj2
[17:31:02]    + data rate: 8107 kbps
[17:31:02]  * destination
[17:31:02]    + /mnt/iMac/DaVinci Resolve/IICAQM/12642545_1920_1080_50fps.mkv
[17:31:02]    + container: Matroska (libavformat)
[17:31:02]  * video track
[17:31:02]    + decoder: h264 8-bit (yuv420p)
[17:31:02]      + bitrate 8103 kbps
[17:31:02]    + filters
[17:31:02]      + Comb Detect (mode=3:spatial-metric=2:motion-thresh=3:spatial-thresh=3:filter-mode=2:block-thresh=40:block-width=16:block-height=16)
[17:31:02]      + Decomb (mode=47)
[17:31:02]      + Framerate Shaper (mode=0)
[17:31:02]        + frame rate: same as source (around 50.000 fps)
[17:31:02]      + Denoise (nlmeans) (y-strength=0:y-origin-tune=0.8:y-patch-size=7:y-range=3:y-frame-count=2:y-prefilter=0:cb-strength=6:cb-origin-tune=0.8:cb-patch-size=7:cb-range=3:cb-frame-count=2:cb-prefilter=0)
[17:31:02]      + Pad (color=black:top=0:bottom=0:left=0:right=0)
[17:31:02]    + Output geometry
[17:31:02]      + storage dimensions: 1920 x 1080
[17:31:02]      + pixel aspect ratio: 1 : 1
[17:31:02]      + display dimensions: 1920 x 1080
[17:31:02]    + encoder: VP9 (libvpx)
[17:31:02]      + preset:  medium
[17:31:02]      + profile: auto
[17:31:02]      + level:   auto
[17:31:02]      + quality: 22.00 (CQ)
[17:31:02]      + color profile: 1-1-1
[17:31:02]      + color range: tv
[17:31:02]      + chroma location: left
[17:31:02] sync: expecting 240 video frames
[17:31:02] encavcodecInit: VP9 encoder
[17:31:02] encavcodec: encoding at CQ 22.00
[17:31:02] encavcodec: encoding with stored aspect 1/1
[17:31:02] sync: first pts video is 0
[17:31:02] sync: Chapter 1 at frame 1 time 0
[17:31:26] reader: done. 1 scr changes

(fr.handbrake.ghb:5): dconf-WARNING **: 17:31:45.083: failed to commit changes to dconf: Could not connect: Permission denied
[17:31:45] gtkgui: Excluded extension jpg
[17:31:45] gtkgui: Excluded extension png
[17:31:45] gtkgui: Excluded extension srt
[17:31:45] gtkgui: Excluded extension ssa
[17:31:45] gtkgui: Excluded extension ass
[17:31:45] gtkgui: Excluded extension txt
[17:31:45] CPU: Intel(R) Xeon(R) W-2135 CPU @ 3.70GHz
[17:31:45]  - logical processor count: 12
[17:31:45] Intel Quick Sync Video support: no
[17:31:45] hb_scan: path=(multiple), title_index=0
[17:31:45] batch: scanning /home/sudar/Downloads/1473165_People_Nature_1920x1080.mp4
Input #0, mov,mp4,m4a,3gp,3g2,mj2, from '/home/sudar/Downloads/1473165_People_Nature_1920x1080.mp4':
  Metadata:
    major_brand     : isom
    minor_version   : 512
    compatible_brands: isomiso2avc1mp41
    encoder         : Lavf58.45.100
  Duration: 00:00:16.22, start: 0.000000, bitrate: 11640 kb/s
  Stream #0:0[0x1](eng): Video: h264 (High) (avc1 / 0x31637661), yuv420p(progressive), 1920x1080 [SAR 1:1 DAR 16:9], 11499 kb/s, 60 fps, 60 tbr, 15360 tbn (default)
      Metadata:
        handler_name    : Apple Video Media Handler
        vendor_id       : [0][0][0][0]
        timecode        : 00:17:41:36
  Stream #0:1[0x2](eng): Audio: mp3 (mp3float) (mp4a / 0x6134706D), 48000 Hz, stereo, fltp, 128 kb/s (default)
      Metadata:
        handler_name    : Apple Sound Media Handler
        vendor_id       : [0][0][0][0]
  Stream #0:2[0x3](eng): Data: none (tmcd / 0x64636D74), 0 kb/s
      Metadata:
        handler_name    : Apple Video Media Handler
        timecode        : 00:17:41:36
[17:31:45] batch: scanning /home/sudar/Downloads/6014809_Flower_Garden_1920x1080.mp4
Input #0, mov,mp4,m4a,3gp,3g2,mj2, from '/home/sudar/Downloads/6014809_Flower_Garden_1920x1080.mp4':
  Metadata:
    major_brand     : isom
    minor_version   : 512
    compatible_brands: isomiso2avc1mp41
    encoder         : Lavf58.76.100
  Duration: 00:00:10.80, start: 0.000000, bitrate: 12018 kb/s
  Stream #0:0[0x1](eng): Video: h264 (High) (avc1 / 0x31637661), yuv420p(tv, bt709, progressive), 1920x1080 [SAR 1:1 DAR 16:9], 11883 kb/s, 25 fps, 25 tbr, 12800 tbn (default)
      Metadata:
        handler_name    : Apple Video Media Handler
        vendor_id       : [0][0][0][0]
        timecode        : 00:20:11:01
  Stream #0:1[0x2](eng): Audio: mp3 (mp3float) (mp4a / 0x6134706D), 48000 Hz, stereo, fltp, 128 kb/s (default)
      Metadata:
        handler_name    : Apple Sound Media Handler
        vendor_id       : [0][0][0][0]
  Stream #0:2[0x3](eng): Data: none (tmcd / 0x64636D74), 0 kb/s
      Metadata:
        handler_name    : Apple Video Media Handler
        timecode        : 00:20:11:01
[17:31:45] batch: scanning /home/sudar/Downloads/1473151_People_Nature_1920x1080.mp4
Input #0, mov,mp4,m4a,3gp,3g2,mj2, from '/home/sudar/Downloads/1473151_People_Nature_1920x1080.mp4':
  Metadata:
    major_brand     : isom
    minor_version   : 512
    compatible_brands: isomiso2avc1mp41
    encoder         : Lavf58.45.100
  Duration: 00:00:12.88, start: 0.000000, bitrate: 12170 kb/s
  Stream #0:0[0x1](eng): Video: h264 (High) (avc1 / 0x31637661), yuv420p(progressive), 1920x1080 [SAR 1:1 DAR 16:9], 12028 kb/s, 60 fps, 60 tbr, 15360 tbn (default)
      Metadata:
        handler_name    : Apple Video Media Handler
        vendor_id       : [0][0][0][0]
        timecode        : 00:11:41:52
  Stream #0:1[0x2](eng): Audio: mp3 (mp3float) (mp4a / 0x6134706D), 48000 Hz, stereo, fltp, 128 kb/s (default)
      Metadata:
        handler_name    : Apple Sound Media Handler
        vendor_id       : [0][0][0][0]
  Stream #0:2[0x3](eng): Data: none (tmcd / 0x64636D74), 0 kb/s
      Metadata:
        handler_name    : Apple Video Media Handler
        timecode        : 00:11:41:52
[17:31:45] batch: scanning /home/sudar/Downloads/4790123_Man_Adult_1920x1080.mp4
Input #0, mov,mp4,m4a,3gp,3g2,mj2, from '/home/sudar/Downloads/4790123_Man_Adult_1920x1080.mp4':
  Metadata:
    major_brand     : isom
    minor_version   : 512
    compatible_brands: isomiso2avc1mp41
    encoder         : Lavf58.45.100
  Duration: 00:00:15.72, start: 0.000000, bitrate: 11696 kb/s
  Stream #0:0[0x1](eng): Video: h264 (High) (avc1 / 0x31637661), yuv420p(progressive), 1920x1080 [SAR 1:1 DAR 16:9], 11693 kb/s, 25 fps, 25 tbr, 12800 tbn (default)
      Metadata:
        vendor_id       : [0][0][0][0]
        timecode        : 00:05:22:24
  Stream #0:1[0x2](eng): Data: none (tmcd / 0x64636D74), 0 kb/s
      Metadata:
        timecode        : 00:05:22:24
[17:31:45] scan: decoding previews for title 1
[17:31:45] scan: audio 0x1: mp3float, rate=48000Hz, bitrate=128065 English (MP3, 2.0 ch, 128 kbps)
[17:31:45] using container PAR 1:1
[17:31:45] scan: 10 previews, 1920x1080, 60.000 fps, autocrop = 0/0/0/0, aspect 16:9, PAR 1:1, color profile: 1-1-1, chroma location: left
[17:31:45] scan: decoding previews for title 2
[17:31:45] scan: audio 0x1: mp3float, rate=48000Hz, bitrate=128284 English (MP3, 2.0 ch, 128 kbps)
[17:31:46] using container PAR 1:1
[17:31:46] scan: 10 previews, 1920x1080, 25.000 fps, autocrop = 0/0/0/0, aspect 16:9, PAR 1:1, color profile: 1-1-1, chroma location: left
[17:31:46] scan: decoding previews for title 3
[17:31:46] scan: audio 0x1: mp3float, rate=48000Hz, bitrate=128055 English (MP3, 2.0 ch, 128 kbps)
[17:31:47] using container PAR 1:1
[17:31:47] scan: 10 previews, 1920x1080, 60.000 fps, autocrop = 0/0/0/0, aspect 16:9, PAR 1:1, color profile: 1-1-1, chroma location: left
[17:31:47] scan: decoding previews for title 4
[17:31:48] using container PAR 1:1
[17:31:48] scan: 10 previews, 1920x1080, 25.000 fps, autocrop = 0/0/0/0, aspect 16:9, PAR 1:1, color profile: 1-1-1, chroma location: left
[17:31:48] libhb: scan thread found 4 valid title(s)
[17:31:54] work: average encoding speed for job is 6.700221 fps
[17:31:54] comb detect: heavy 0 | light 0 | uncombed 240 | total 240
[17:31:54] decomb: deinterlaced 0 | blended 0 | unfiltered 240 | total 240
[17:31:54] vfr: 240 frames output, 0 dropped
[17:31:54] vfr: lost time: 0 (0 frames)
[17:31:54] vfr: gained time: 0 (0 frames) (0 not accounted for)
[17:31:54] h264-decoder done: 240 frames, 0 decoder errors
[17:31:54] sync: got 240 frames, 240 expected
[17:31:54] sync: framerate min 50.000 fps, max 50.000 fps, avg 50.000 fps
[17:31:56] mux: track 0, 240 frames, 8102440 bytes, 13448.03 kbps, fifo 256
[17:31:56] Finished work at: Fri Oct 17 17:31:56 2025

[17:31:56] libhb: work result = 0
